:SAMPLES-PER-SECOND 30
:FULLY-SPECIFIED
:DEGREES
660
root  -0.756125 23.9635 -24.0148 31.8716 -1.28009 99.6333
Spine  6.18666 7.92543 27.2968
Spine1  2.39064 -23.6842 -3.14463
Neck  3.97569e-016 0 -2.38542e-015
Head  -47.7828 -0.621939 7.24233
R_Clavicle  0.212011 -8.28855 0.741346
R_UpperArm  21.7403 14.5183 26.1671
R_Forearm  29.8487 -23.0401 20.3063
R_Hand  -3.25805 10.232 -34.318
L_Clavicle  -0.486993 16.9172 -0.922544
L_UpperArm  -49.4648 -12.8306 42.9211
L_Forearm  -23.3036 27.5833 39.3863
L_Hand  0.0790487 3.69834 1.0788
L_Thigh  34.857 2.72728 40.4019
L_Calf  37.1177 -0.836846 5.96305
L_Foot  -0.852433 -10.8551 17.6299
L_Toe0  0.505156 0.034446 -6.1361
R_Thigh  -26.5251 -37.9693 5.52842
R_Calf  -18.6939 4.80995 15.119
R_Foot  15.7377 39.1294 12.5498
R_Toe0  -0.260062 -0.0313673 -1.81914
661
root  -0.434267 25.0108 -22.5967 28.7021 -2.35709 96.9811
Spine  6.00326 5.81906 23.6536
Spine1  3.6892 -19.4475 -5.56732
Neck  3.97569e-016 0 -2.38542e-015
Head  -46.2099 -0.269505 6.67652
R_Clavicle  0.220838 -11.435 0.0632128
R_UpperArm  19.8443 10.0239 30.7729
R_Forearm  29.851 -21.7681 19.3781
R_Hand  -2.65012 9.95307 -30.423
L_Clavicle  -0.50425 17.2618 -1.25925
L_UpperArm  -40.373 -5.95671 45.3141
L_Forearm  -24.9627 28.3949 39.5178
L_Hand  0.148241 3.29366 2.05781
L_Thigh  35.5105 3.54244 36.6926
L_Calf  34.1788 -0.590284 4.34246
L_Foot  0.124717 -9.26247 19.8739
L_Toe0  0.505156 0.034446 -6.1361
R_Thigh  -23.0175 -37.3412 2.16104
R_Calf  -11.6981 7.65331 24.6268
R_Foot  11.2387 39.9959 -5.66227
R_Toe0  3.15101 -0.646072 -1.94
662
root  -0.170219 26.288 -21.4189 24.2876 -3.65353 93.8599
Spine  5.59347 3.52567 20.25
Spine1  4.4632 -15.8208 -7.42014
Neck  3.97569e-016 0 -2.38542e-015
Head  -43.6904 1.56912 6.41508
R_Clavicle  0.330434 -15.586 0.670495
R_UpperArm  14.6682 9.74451 34.2131
R_Forearm  32.7336 -22.5202 19.9384
R_Hand  -2.06682 9.82427 -26.4675
L_Clavicle  -0.439881 15.6897 -1.42944
L_UpperArm  -28.8706 1.80588 48.1335
L_Forearm  -26.4363 28.0246 37.187
L_Hand  0.0799928 2.4352 1.24179
L_Thigh  33.5837 7.1271 31.9424
L_Calf  33.2782 -0.737012 5.68275
L_Foot  0.731686 -7.947 19.9771
L_Toe0  0.505156 0.034446 -6.1361
R_Thigh  -14.8288 -34.2957 0.671385
R_Calf  -3.78907 9.14184 30.0108
R_Foot  5.23472 27.8313 -20.6991
R_Toe0  10.0029 -1.50397 -11.6739
663
root  0.0314816 27.8837 -20.7413 19.6567 -4.99811 91.0623
Spine  4.97279 1.39537 16.1199
Spine1  4.68006 -13.1434 -7.04065
Neck  3.97569e-016 0 -2.38542e-015
Head  -41.0671 3.82847 6.44108
R_Clavicle  0.336268 -15.5453 0.742765
R_UpperArm  18.4687 4.59557 32.9515
R_Forearm  29.416 -23.5122 20.4269
R_Hand  -1.72559 10.4866 -24.0161
L_Clavicle  -0.370449 14.1483 -1.6755
L_UpperArm  -18.6001 7.6818 50.3669
L_Forearm  -23.6128 25.8291 33.913
L_Hand  0.0561755 3.04375 0.876121
L_Thigh  31.4715 12.4925 25.2521
L_Calf  29.6081 -1.8748 13.2375
L_Foot  0.0490135 -8.26884 16.1175
L_Toe0  0.505156 0.034446 -6.1361
R_Thigh  -2.10792 -29.3882 -1.21295
R_Calf  -2.91125 10.2238 34.2127
R_Foot  3.67677 14.9174 -24.5575
R_Toe0  5.46651 -0.70492 -13.1299
664
root  0.172716 29.5497 -20.463 15.355 -6.05069 89.3463
Spine  4.32298 -0.024881 10.8216
Spine1  4.62787 -12.0468 -5.09194
Neck  3.97569e-016 0 -2.38542e-015
Head  -38.8464 4.75438 7.82839
R_Clavicle  0.313415 -14.806 0.547523
R_UpperArm  25.0406 -1.72739 30.9397
R_Forearm  25.2781 -23.7597 20.5756
R_Hand  -1.74761 11.3713 -24.0151
L_Clavicle  -0.344203 13.6162 -1.81536
L_UpperArm  -14.6322 10.8537 50.7413
L_Forearm  -14.614 24.4213 31.6303
L_Hand  0.0767081 5.1934 0.99116
L_Thigh  27.5105 18.0467 16.3698
L_Calf  19.4618 -2.44787 26.5948
L_Foot  -1.5103 -10.6135 10.6502
L_Toe0  0.505156 0.034446 -6.1361
R_Thigh  10.8101 -23.5754 -4.56745
R_Calf  -8.0351 11.1994 38.2643
R_Foot  3.63671 12.668 -22.1975
R_Toe0  1.8512 -0.37503 -15.2386
665
root  0.294086 30.9188 -20.2138 11.5972 -6.18399 88.7709
Spine  3.39396 -0.449534 5.23247
Spine1  4.02205 -12.7696 -3.8811
Neck  3.97569e-016 0 -2.38542e-015
Head  -36.8326 4.29181 10.9018
R_Clavicle  0.358638 -16.8065 0.864646
R_UpperArm  25.1191 -4.43626 31.2966
R_Forearm  26.4002 -23.8437 20.6096
R_Hand  -1.96442 11.3206 -25.3816
L_Clavicle  -0.33724 13.1806 -1.31022
L_UpperArm  -13.9959 12.9244 49.4417
L_Forearm  -5.59309 24.167 31.2069
L_Hand  0.0784567 6.78819 0.918612
L_Thigh  11.5649 22.0464 8.0813
L_Calf  12.3831 0.517004 39.2822
L_Foot  -2.44521 -11.4992 5.21741
L_Toe0  0.505156 0.034446 -6.1361
R_Thigh  19.5058 -18.4716 -6.8779
R_Calf  -11.7198 11.2699 37.9862
R_Foot  4.17545 16.6117 -17.36
R_Toe0  -2.10346 -0.262435 -17.542
666
root  0.456545 31.8358 -19.7694 8.82031 -4.97238 88.7052
Spine  1.92574 -1.16227 0.412569
Spine1  2.76451 -13.3733 -4.29474
Neck  3.97569e-016 0 -2.38542e-015
Head  -35.0472 3.45259 13.8868
R_Clavicle  0.386843 -18.5117 1.1196
R_UpperArm  21.2463 -6.29555 33.1214
R_Forearm  29.462 -23.7238 20.5195
R_Hand  -1.98409 10.5591 -25.7129
L_Clavicle  -0.341464 12.489 -0.289818
L_UpperArm  -15.0295 15.0113 47.5871
L_Forearm  -0.315386 24.5146 31.778
L_Hand  -0.0160339 6.56297 0.0608613
L_Thigh  -0.180635 21.8021 4.13888
L_Calf  2.90351 -1.15142 38.3488
L_Foot  0.173314 -3.84188 6.5609
L_Toe0  0.505156 0.034446 -6.1361
R_Thigh  26.2603 -15.5866 -7.89044
R_Calf  -10.8793 10.0164 33.1383
R_Foot  4.21479 15.8169 -12.6502
R_Toe0  -2.03978 -0.261685 -17.1019
667
root  0.681755 32.2839 -19.1731 7.05713 -2.89951 88.2388
Spine  0.374882 -2.87505 -3.15498
Spine1  1.38593 -12.4373 -5.10062
Neck  3.97569e-016 0 -2.38542e-015
Head  -34.1819 2.96789 14.7112
R_Clavicle  0.364362 -17.8857 0.700073
R_UpperArm  18.7763 -9.27543 34.9882
R_Forearm  29.8926 -22.8882 20.1706
R_Hand  -1.75026 9.7827 -24.3196
L_Clavicle  -0.364468 12.3475 0.539556
L_UpperArm  -17.6287 16.3256 45.1913
L_Forearm  0.1758 25.3173 33.1081
L_Hand  -0.195566 4.8182 -1.95399
L_Thigh  -3.6437 19.2015 0.814119
L_Calf  -1.78635 -4.10128 31.8643
L_Foot  1.70011 -1.07611 10.0502
L_Toe0  0.505156 0.034446 -6.1361
R_Thigh  31.2047 -13.8775 -9.36006
R_Calf  -5.14838 8.41393 27.2509
R_Foot  3.29276 10.9558 -8.17313
R_Toe0  -2.78319 -0.230368 -16.4939
668
root  0.95571 32.3555 -18.5111 5.42725 -1.14008 86.7531
Spine  -0.546161 -3.76036 -5.40586
Spine1  0.405293 -11.2855 -4.98672
Neck  3.97569e-016 0 -2.38542e-015
Head  -34.5483 2.80108 13.4356
R_Clavicle  0.349394 -17.6678 0.410828
R_UpperArm  18.0401 -10.3796 37.2325
R_Forearm  28.3911 -22.4135 19.9277
R_Hand  -1.50704 8.74473 -22.7374
L_Clavicle  -0.399915 13.5805 0.805849
L_UpperArm  -21.7944 15.3971 41.6318
L_Forearm  -3.06082 26.8856 35.4112
L_Hand  -0.326579 2.86003 -4.30092
L_Thigh  -3.92096 14.9805 -2.51587
L_Calf  3.69005 -3.07863 22.5609
L_Foot  1.92751 -2.14263 13.056
L_Toe0  0.505156 0.034446 -6.1361
R_Thigh  31.9722 -11.2597 -11.5257
R_Calf  1.66472 6.57589 20.9254
R_Foot  2.38764 7.84948 -2.03254
R_Toe0  -1.46869 -0.270838 -17.4312
669
root  1.21706 32.1093 -17.8266 3.16602 0.0672302 84.4185
Spine  -0.793326 -2.64171 -7.04154
Spine1  -0.152934 -11.4534 -3.59516
Neck  3.97569e-016 0 -2.38542e-015
Head  -35.35 2.34547 11.766
R_Clavicle  0.376554 -18.6508 0.768501
R_UpperArm  18.5162 -8.67972 39.1752
R_Forearm  27.6355 -23.711 20.4277
R_Hand  -1.45595 7.75737 -22.4462
L_Clavicle  -0.455205 16.1233 0.695522
L_UpperArm  -26.5471 11.7823 37.2551
L_Forearm  -7.95592 29.3887 38.3542
L_Hand  -0.381924 1.60572 -5.98821
L_Thigh  1.03238 9.9866 -5.87299
L_Calf  8.21986 -1.69556 12.242
L_Foot  2.07345 -2.58895 14.6397
L_Toe0  0.481432 0.0349943 -6.15713
R_Thigh  29.0574 -7.41505 -13.9976
R_Calf  4.4831 4.41112 13.8439
R_Foot  1.84908 6.83193 2.85723
R_Toe0  0.129943 -0.3114 -14.9216
